<?xml version="1.0" encoding="UTF-8" standalone="no"?>
<!DOCTYPE svg PUBLIC "-//W3C//DTD SVG 1.1//EN" "http://www.w3.org/Graphics/SVG/1.1/DTD/svg11.dtd">
<svg width="300px" height="100px" viewBox="0 0 1626 442" version="1.1" xmlns="http://www.w3.org/2000/svg" xmlns:xlink="http://www.w3.org/1999/xlink" xml:space="preserve" xmlns:serif="http://www.serif.com/" style="fill-rule:evenodd;clip-rule:evenodd;stroke-linejoin:round;stroke-miterlimit:2;">
    <g transform="matrix(1,0,0,1,-879.167,-1020.84)">
        <g transform="matrix(4.16667,0,0,4.16667,0,0)">
            <g opacity="0.9">
                <g transform="matrix(1,0,0,1,261,263)">
                    <path d="M0,0L0,17L10,17L10,-17L-33,-17L-33,17L-24,17L-24,0L-26,0L-26,-7L2,-7L2,0L0,0Z" style="fill:rgb(100,86,64);fill-rule:nonzero;"/>
                </g>
                <g transform="matrix(1,0,0,1,0,12.72)">
                    <rect x="244" y="274.28" width="10" height="34" style="fill:rgb(100,86,64);"/>
                </g>
                <g transform="matrix(1,0,0,1,277,321)">
                    <path d="M0,-75L0,-41L2,-41L2,-34L0,-34L0,-10L-7,-10L-7,-34L-16,-34L-16,0L10,0L10,-75L0,-75Z" style="fill:rgb(100,86,64);fill-rule:nonzero;"/>
                </g>
                <g transform="matrix(1,0,0,1,237,280)">
                    <path d="M0,7L-9,7L-9,31L-16,31L-16,7L-18,7L-18,0L-16,0L-16,-34L-26,-34L-26,41L0,41L0,7Z" style="fill:rgb(100,86,64);fill-rule:nonzero;"/>
                </g>
                <g transform="matrix(1,0,0,1,0,-51.28)">
                    <rect x="244" y="314.28" width="10" height="18" style="fill:rgb(100,86,64);"/>
                </g>
            </g>
        </g>
        <g transform="matrix(4.16667,0,0,4.16667,0,0)">
            <g transform="matrix(1,0,0,1,317.802,277.94)">
                <path d="M0,9.333C1.991,9.333 4.06,9.368 6.206,9.44C8.35,9.511 10.416,9.546 12.41,9.546C14.553,9.546 16.697,9.527 18.843,9.492C20.986,9.457 23.131,9.404 25.277,9.333L12.522,-17.903L0,9.333ZM50.975,42.273C49.898,42.132 48.883,42.06 47.925,42.06L41.821,42.06C40.86,42.06 39.843,42.132 38.771,42.273C38.235,40.628 37.504,38.64 36.583,36.311C35.663,33.983 34.643,31.548 33.531,29.006C32.418,26.462 31.286,23.884 30.136,21.27C28.984,18.655 27.909,16.166 26.912,13.8C24.453,13.729 21.959,13.678 19.429,13.639C16.895,13.605 14.361,13.586 11.829,13.586C9.449,13.586 7.108,13.605 4.806,13.639C2.503,13.678 0.159,13.729 -2.218,13.8C-4.675,19.388 -6.902,24.708 -8.896,29.759C-10.894,34.808 -12.389,38.984 -13.386,42.273C-14.694,42.132 -16.112,42.06 -17.646,42.06C-19.183,42.06 -20.603,42.132 -21.908,42.273C-15.689,29.74 -9.627,17.277 -3.715,4.881C2.196,-7.51 8.144,-20.117 14.13,-32.94L16.318,-32.94C18.161,-28.785 20.157,-24.29 22.307,-19.456C24.453,-14.621 26.642,-9.728 28.87,-4.79C31.094,0.155 33.319,5.062 35.547,9.933C37.773,14.805 39.865,19.335 41.821,23.526C43.781,27.714 45.543,31.46 47.118,34.753C48.691,38.049 49.976,40.555 50.975,42.273" style="fill:rgb(100,86,64);fill-rule:nonzero;"/>
            </g>
        </g>
        <g transform="matrix(4.16667,0,0,4.16667,0,0)">
            <g transform="matrix(1,0,0,1,440.293,306.734)">
                <path d="M0,-45.895C-0.197,-50.434 -0.403,-55.062 -0.629,-59.779C0.364,-59.639 1.321,-59.513 2.239,-59.406C3.158,-59.298 4.079,-59.245 4.998,-59.245C5.917,-59.245 6.836,-59.298 7.757,-59.406C8.676,-59.513 9.632,-59.639 10.632,-59.779C10.396,-55.062 10.188,-50.434 9.997,-45.895C9.803,-41.353 9.707,-36.726 9.707,-32.008L9.707,-12.948C9.707,-8.44 9.799,-4.003 9.983,0.364C10.167,4.734 10.365,9.036 10.59,13.267C8.901,13.129 7.108,13.065 5.21,13.065C3.309,13.065 1.513,13.129 -0.164,13.267C0.052,9.036 0.248,4.734 0.437,0.364C0.622,-4.003 0.707,-8.44 0.707,-12.948L0.707,-23.215C-3.512,-23.286 -7.595,-23.339 -11.539,-23.376C-15.486,-23.414 -19.572,-23.434 -23.792,-23.434C-28.01,-23.434 -32.096,-23.414 -36.046,-23.376C-39.991,-23.339 -44.071,-23.286 -48.293,-23.215L-48.293,-13.566C-48.293,-8.845 -48.202,-4.199 -48.016,0.374C-47.836,4.95 -47.634,9.454 -47.416,13.884C-49.098,13.74 -50.889,13.673 -52.79,13.673C-54.697,13.673 -56.485,13.74 -58.169,13.884C-57.949,9.454 -57.749,4.95 -57.564,0.374C-57.382,-4.199 -57.293,-8.845 -57.293,-13.566L-57.293,-32.008C-57.293,-36.726 -57.382,-41.353 -57.564,-45.895C-57.749,-50.434 -57.949,-55.062 -58.169,-59.779C-57.221,-59.639 -56.302,-59.513 -55.428,-59.406C-54.548,-59.298 -53.67,-59.245 -52.79,-59.245C-51.916,-59.245 -51.036,-59.298 -50.158,-59.406C-49.278,-59.513 -48.368,-59.639 -47.416,-59.779C-47.634,-55.062 -47.836,-50.434 -48.016,-45.895C-48.202,-41.353 -48.293,-36.726 -48.293,-32.008L-48.293,-28.254C-44.157,-28.183 -40.16,-28.11 -36.296,-28.041C-32.427,-27.968 -28.424,-27.934 -24.292,-27.934C-20.158,-27.934 -16.155,-27.968 -12.289,-28.041C-8.425,-28.11 -4.426,-28.183 -0.293,-28.254L-0.293,-32.008C-0.293,-36.726 -0.382,-41.353 -0.576,-45.895" style="fill:rgb(100,86,64);fill-rule:nonzero;"/>
            </g>
        </g>
        <g transform="matrix(4.16667,0,0,4.16667,0,0)">
            <g transform="matrix(1,0,0,1,480.43,251.028)">
                <path d="M0,64.449C1.613,64.81 3.805,65.078 6.571,65.257C9.339,65.436 12.182,65.526 15.104,65.526C19.33,65.526 23.559,65.06 27.786,64.128C32.013,63.195 35.801,61.437 39.144,58.855C42.487,56.271 45.215,52.74 47.33,48.256C49.443,43.773 50.5,37.98 50.5,30.878C50.5,24.637 49.674,19.509 48.021,15.491C46.368,11.474 44.101,8.3 41.219,5.968C38.336,3.637 34.896,2.023 30.899,1.126C26.901,0.23 22.521,-0.219 17.755,-0.219C14.296,-0.219 11.068,-0.112 8.07,0.103C5.072,0.319 2.381,0.571 0,0.857C-0.23,4.301 -0.403,7.905 -0.52,11.671C-0.635,15.437 -0.692,19.257 -0.692,23.131L-0.692,41.639C-0.692,49.386 -0.462,56.99 0,64.449M-9.742,9.199C-9.936,4.644 -10.146,-0.002 -10.377,-4.737C-7.457,-4.592 -4.554,-4.467 -1.672,-4.36C1.211,-4.252 4.111,-4.198 7.034,-4.198C9.954,-4.198 12.855,-4.287 15.738,-4.467C18.62,-4.645 21.521,-4.737 24.443,-4.737C31.207,-4.737 36.991,-3.911 41.796,-2.261C46.6,-0.611 50.539,1.739 53.615,4.786C56.688,7.837 58.937,11.566 60.358,15.978C61.781,20.389 62.492,25.357 62.492,30.881C62.492,38.054 61.166,44.098 58.515,49.011C55.863,53.926 52.479,57.888 48.368,60.902C44.256,63.914 39.721,66.05 34.763,67.303C29.805,68.56 25.058,69.186 20.524,69.186C17.91,69.186 15.334,69.15 12.799,69.08C10.262,69.007 7.686,68.971 5.073,68.971L-2.651,68.971C-5.188,68.971 -7.765,69.042 -10.377,69.186C-10.146,64.739 -9.936,60.22 -9.742,55.63C-9.552,51.039 -9.455,46.375 -9.455,41.641L-9.455,23.133C-9.455,18.398 -9.552,13.755 -9.742,9.199" style="fill:rgb(100,86,64);fill-rule:nonzero;"/>
            </g>
        </g>
        <g transform="matrix(4.16667,0,0,4.16667,0,0)">
            <g transform="matrix(1,0,0,1,561.032,257.382)">
                <path d="M0,52.447C1.012,53.742 2.248,54.912 3.709,55.961C5.17,57.01 6.874,57.867 8.823,58.531C10.771,59.196 12.943,59.528 15.343,59.528C17.815,59.528 20.043,59.127 22.029,58.322C24.015,57.518 25.701,56.433 27.088,55.07C28.473,53.706 29.542,52.097 30.291,50.245C31.039,48.392 31.415,46.416 31.415,44.318C31.415,41.102 30.534,38.548 28.773,36.66C27.012,34.772 24.82,33.199 22.198,31.94C19.574,30.681 16.747,29.528 13.712,28.479C10.678,27.43 7.849,26.118 5.227,24.545C2.604,22.972 0.41,20.963 -1.349,18.514C-3.109,16.067 -3.99,12.78 -3.99,8.654C-3.99,5.717 -3.428,3.042 -2.304,0.629C-1.18,-1.783 0.449,-3.863 2.585,-5.612C4.721,-7.359 7.286,-8.722 10.284,-9.702C13.28,-10.681 16.652,-11.171 20.4,-11.171C23.997,-11.171 27.105,-10.768 29.729,-9.965C32.352,-9.16 34.787,-7.92 37.035,-6.241C36.36,-5.052 35.799,-3.793 35.349,-2.465C34.899,-1.136 34.45,0.542 34,2.57L32.652,2.57C32.275,1.592 31.77,0.525 31.135,-0.629C30.496,-1.783 29.635,-2.848 28.549,-3.829C27.462,-4.807 26.17,-5.628 24.671,-6.293C23.172,-6.957 21.373,-7.29 19.276,-7.29C17.177,-7.29 15.247,-6.975 13.488,-6.346C11.727,-5.717 10.189,-4.825 8.879,-3.672C7.567,-2.517 6.556,-1.136 5.844,0.472C5.132,2.081 4.776,3.829 4.776,5.717C4.776,9.005 5.657,11.591 7.418,13.479C9.179,15.367 11.37,16.958 13.993,18.251C16.615,19.547 19.445,20.7 22.479,21.713C25.515,22.728 28.341,23.968 30.966,25.437C33.588,26.905 35.779,28.793 37.54,31.101C39.301,33.409 40.182,36.487 40.182,40.332C40.182,43.55 39.564,46.592 38.327,49.458C37.091,52.326 35.292,54.826 32.933,56.957C30.572,59.093 27.687,60.734 24.277,61.887C20.867,63.042 16.989,63.618 12.645,63.618C7.998,63.618 4.232,63.042 1.349,61.887C-1.537,60.734 -3.953,59.423 -5.901,57.954C-5.227,56.346 -4.759,54.895 -4.495,53.601C-4.233,52.308 -3.99,50.648 -3.765,48.619L-2.417,48.619C-1.817,49.878 -1.012,51.155 0,52.447" style="fill:rgb(100,86,64);fill-rule:nonzero;"/>
            </g>
        </g>
        <g transform="matrix(4.16667,0,0,4.16667,0,0)">
            <g transform="matrix(1,0,0,1,216.051,341.193)">
                <path d="M0,1.872C0.423,1.872 0.862,1.88 1.318,1.896C1.773,1.912 2.212,1.92 2.636,1.92C3.091,1.92 3.546,1.916 4.002,1.908C4.458,1.9 4.913,1.889 5.369,1.872L2.66,-4.224L0,1.872ZM10.811,9.336C10.583,9.304 10.367,9.288 10.164,9.288L8.87,9.288C8.667,9.288 8.451,9.304 8.224,9.336C8.11,8.968 7.955,8.524 7.76,8.004C7.565,7.484 7.349,6.94 7.113,6.372C6.877,5.805 6.638,5.228 6.394,4.644C6.149,4.06 5.921,3.504 5.71,2.976C5.189,2.96 4.661,2.948 4.124,2.94C3.587,2.933 3.05,2.928 2.514,2.928C2.009,2.928 1.513,2.933 1.025,2.94C0.537,2.948 0.041,2.96 -0.463,2.976C-0.984,4.224 -1.456,5.412 -1.879,6.54C-2.302,7.668 -2.62,8.601 -2.831,9.336C-3.107,9.304 -3.408,9.288 -3.733,9.288C-4.059,9.288 -4.36,9.304 -4.636,9.336C-3.319,6.536 -2.034,3.752 -0.781,0.984C0.472,-1.784 1.732,-4.6 3.001,-7.464L3.465,-7.464C3.855,-6.536 4.278,-5.532 4.734,-4.452C5.189,-3.372 5.653,-2.28 6.125,-1.176C6.597,-0.072 7.068,1.024 7.541,2.112C8.012,3.2 8.456,4.212 8.87,5.148C9.285,6.084 9.659,6.92 9.993,7.656C10.326,8.393 10.599,8.952 10.811,9.336" style="fill:rgb(100,86,64);fill-rule:nonzero;"/>
            </g>
        </g>
        <g transform="matrix(4.16667,0,0,4.16667,0,0)">
            <g transform="matrix(1,0,0,1,231.668,340.184)">
                <path d="M0,4.201C0,5.929 0.049,7.625 0.146,9.289C0.488,9.369 0.952,9.429 1.537,9.469C2.123,9.509 2.725,9.529 3.343,9.529C4.237,9.529 5.132,9.425 6.027,9.217C6.922,9.009 7.723,8.617 8.431,8.041C9.139,7.465 9.716,6.677 10.164,5.677C10.611,4.677 10.834,3.385 10.834,1.801C10.834,0.409 10.66,-0.736 10.31,-1.631C9.96,-2.528 9.48,-3.236 8.87,-3.755C8.26,-4.275 7.532,-4.635 6.686,-4.835C5.84,-5.035 4.913,-5.135 3.904,-5.135C3.172,-5.135 2.489,-5.112 1.854,-5.064C1.22,-5.015 0.65,-4.959 0.146,-4.896C0.098,-4.127 0.061,-3.323 0.037,-2.484C0.012,-1.644 0,-0.791 0,0.073L0,4.201ZM-2.001,0.073C-2.001,-0.984 -2.021,-2.019 -2.062,-3.035C-2.103,-4.051 -2.147,-5.087 -2.196,-6.144C-1.578,-6.112 -0.964,-6.083 -0.354,-6.06C0.256,-6.035 0.87,-6.024 1.488,-6.024C2.106,-6.024 2.721,-6.043 3.331,-6.083C3.941,-6.123 4.555,-6.144 5.173,-6.144C6.604,-6.144 7.829,-5.959 8.846,-5.591C9.862,-5.223 10.696,-4.699 11.347,-4.02C11.998,-3.339 12.473,-2.507 12.774,-1.524C13.075,-0.539 13.226,0.569 13.226,1.801C13.226,3.401 12.945,4.749 12.384,5.845C11.823,6.941 11.107,7.825 10.237,8.497C9.366,9.169 8.407,9.645 7.357,9.925C6.308,10.205 5.303,10.345 4.344,10.345C3.79,10.345 3.246,10.337 2.708,10.321C2.172,10.305 1.626,10.297 1.074,10.297L-0.562,10.297C-1.098,10.297 -1.644,10.312 -2.196,10.345C-2.147,9.352 -2.103,8.345 -2.062,7.321C-2.021,6.297 -2.001,5.257 -2.001,4.201L-2.001,0.073Z" style="fill:rgb(100,86,64);fill-rule:nonzero;"/>
            </g>
        </g>
        <g transform="matrix(4.16667,0,0,4.16667,0,0)">
            <g transform="matrix(1,0,0,1,250.654,342.944)">
                <path d="M0,-1.32C0.228,-1.271 0.476,-1.239 0.744,-1.223C1.013,-1.208 1.309,-1.2 1.635,-1.2C2.139,-1.2 2.664,-1.256 3.209,-1.368C3.753,-1.479 4.254,-1.675 4.709,-1.956C5.165,-2.235 5.543,-2.611 5.844,-3.084C6.145,-3.555 6.296,-4.152 6.296,-4.872C6.296,-5.496 6.178,-6.011 5.942,-6.42C5.706,-6.828 5.401,-7.152 5.027,-7.391C4.652,-7.632 4.246,-7.796 3.807,-7.883C3.367,-7.971 2.936,-8.015 2.513,-8.015C1.944,-8.015 1.472,-8.004 1.098,-7.979C0.724,-7.956 0.406,-7.927 0.146,-7.895C0.113,-7.015 0.081,-6.143 0.049,-5.28C0.016,-4.416 0,-3.551 0,-2.687L0,-1.32ZM-2.001,-2.687C-2.001,-3.744 -2.021,-4.779 -2.062,-5.796C-2.103,-6.811 -2.147,-7.847 -2.196,-8.904C-1.725,-8.872 -1.261,-8.843 -0.805,-8.82C-0.35,-8.796 0.113,-8.784 0.585,-8.784C1.057,-8.784 1.521,-8.803 1.977,-8.843C2.432,-8.883 2.896,-8.904 3.367,-8.904C4.051,-8.904 4.701,-8.84 5.32,-8.712C5.937,-8.584 6.479,-8.372 6.942,-8.076C7.406,-7.779 7.772,-7.391 8.041,-6.912C8.309,-6.431 8.443,-5.832 8.443,-5.112C8.443,-4.343 8.268,-3.683 7.918,-3.132C7.568,-2.58 7.142,-2.124 6.637,-1.763C6.133,-1.404 5.592,-1.124 5.015,-0.924C4.437,-0.723 3.912,-0.591 3.44,-0.528C3.636,-0.288 3.904,0.048 4.246,0.481C4.587,0.912 4.97,1.389 5.393,1.909C5.815,2.429 6.255,2.973 6.71,3.54C7.166,4.109 7.605,4.653 8.028,5.172C8.451,5.693 8.85,6.168 9.224,6.601C9.598,7.033 9.899,7.361 10.127,7.584C9.883,7.552 9.639,7.536 9.395,7.536L7.955,7.536C7.711,7.536 7.475,7.552 7.248,7.584C7.003,7.248 6.633,6.744 6.137,6.073C5.641,5.401 5.092,4.68 4.49,3.912C3.888,3.145 3.273,2.38 2.647,1.62C2.021,0.861 1.448,0.216 0.927,-0.311L0,-0.311L0,1.441C0,2.496 0.02,3.536 0.061,4.561C0.101,5.584 0.146,6.592 0.195,7.584C-0.179,7.552 -0.578,7.536 -1,7.536C-1.424,7.536 -1.822,7.552 -2.196,7.584C-2.147,6.592 -2.103,5.584 -2.062,4.561C-2.021,3.536 -2.001,2.496 -2.001,1.441L-2.001,-2.687Z" style="fill:rgb(100,86,64);fill-rule:nonzero;"/>
            </g>
        </g>
        <g transform="matrix(4.16667,0,0,4.16667,0,0)">
            <g transform="matrix(1,0,0,1,263.501,347.42)">
                <path d="M0,-10.272C-0.041,-11.288 -0.085,-12.324 -0.134,-13.38C0.077,-13.348 0.28,-13.32 0.476,-13.296C0.671,-13.272 0.866,-13.26 1.062,-13.26C1.257,-13.26 1.452,-13.272 1.647,-13.296C1.842,-13.32 2.045,-13.348 2.257,-13.38C2.208,-12.324 2.163,-11.288 2.123,-10.272C2.082,-9.255 2.062,-8.22 2.062,-7.164L2.062,-3.036C2.062,-1.98 2.082,-0.94 2.123,0.084C2.163,1.108 2.208,2.116 2.257,3.108C1.883,3.076 1.484,3.06 1.062,3.06C0.638,3.06 0.24,3.076 -0.134,3.108C-0.085,2.116 -0.041,1.108 0,0.084C0.041,-0.94 0.061,-1.98 0.061,-3.036L0.061,-7.164C0.061,-8.22 0.041,-9.255 0,-10.272" style="fill:rgb(100,86,64);fill-rule:nonzero;"/>
            </g>
        </g>
        <g transform="matrix(4.16667,0,0,4.16667,0,0)">
            <g transform="matrix(1,0,0,1,273.006,341.193)">
                <path d="M0,1.872C0.423,1.872 0.862,1.88 1.318,1.896C1.773,1.912 2.212,1.92 2.636,1.92C3.091,1.92 3.546,1.916 4.002,1.908C4.458,1.9 4.913,1.889 5.369,1.872L2.66,-4.224L0,1.872ZM10.811,9.336C10.583,9.304 10.367,9.288 10.164,9.288L8.87,9.288C8.667,9.288 8.451,9.304 8.224,9.336C8.11,8.968 7.955,8.524 7.76,8.004C7.565,7.484 7.349,6.94 7.113,6.372C6.877,5.805 6.638,5.228 6.394,4.644C6.149,4.06 5.921,3.504 5.71,2.976C5.189,2.96 4.661,2.948 4.124,2.94C3.587,2.933 3.05,2.928 2.514,2.928C2.009,2.928 1.513,2.933 1.025,2.94C0.537,2.948 0.041,2.96 -0.463,2.976C-0.984,4.224 -1.456,5.412 -1.879,6.54C-2.302,7.668 -2.62,8.601 -2.831,9.336C-3.107,9.304 -3.408,9.288 -3.733,9.288C-4.059,9.288 -4.36,9.304 -4.636,9.336C-3.319,6.536 -2.034,3.752 -0.781,0.984C0.472,-1.784 1.732,-4.6 3.001,-7.464L3.465,-7.464C3.855,-6.536 4.278,-5.532 4.734,-4.452C5.189,-3.372 5.653,-2.28 6.125,-1.176C6.597,-0.072 7.068,1.024 7.541,2.112C8.012,3.2 8.456,4.212 8.87,5.148C9.285,6.084 9.659,6.92 9.993,7.656C10.326,8.393 10.599,8.952 10.811,9.336" style="fill:rgb(100,86,64);fill-rule:nonzero;"/>
            </g>
        </g>
        <g transform="matrix(4.16667,0,0,4.16667,0,0)">
            <g transform="matrix(1,0,0,1,294.382,340.269)">
                <path d="M0,4.032C-2.115,1.8 -4.23,-0.42 -6.345,-2.628C-6.361,-2.18 -6.377,-1.58 -6.394,-0.828C-6.41,-0.076 -6.418,0.948 -6.418,2.244C-6.418,2.58 -6.414,2.996 -6.406,3.492C-6.397,3.988 -6.39,4.508 -6.381,5.052C-6.373,5.595 -6.361,6.148 -6.345,6.708C-6.329,7.268 -6.312,7.788 -6.296,8.267C-6.28,8.748 -6.263,9.168 -6.247,9.528C-6.231,9.887 -6.214,10.132 -6.198,10.26C-6.458,10.227 -6.743,10.212 -7.052,10.212C-7.378,10.212 -7.679,10.227 -7.955,10.26C-7.923,10.1 -7.886,9.803 -7.845,9.372C-7.805,8.939 -7.769,8.424 -7.735,7.824C-7.703,7.223 -7.667,6.572 -7.625,5.868C-7.585,5.164 -7.553,4.46 -7.528,3.756C-7.504,3.052 -7.483,2.364 -7.467,1.692C-7.451,1.019 -7.443,0.42 -7.443,-0.109C-7.443,-1.645 -7.447,-2.964 -7.455,-4.069C-7.463,-5.172 -7.483,-5.996 -7.516,-6.54L-7.125,-6.54C-6.133,-5.485 -5.072,-4.352 -3.941,-3.145C-2.811,-1.936 -1.688,-0.744 -0.573,0.431C0.541,1.608 1.599,2.72 2.599,3.767C3.6,4.816 4.474,5.708 5.222,6.444L5.222,3.179C5.222,1.5 5.21,-0.136 5.186,-1.729C5.161,-3.321 5.108,-4.821 5.027,-6.229C5.352,-6.148 5.628,-6.109 5.856,-6.109C6.052,-6.109 6.312,-6.148 6.638,-6.229C6.605,-5.876 6.568,-5.348 6.528,-4.645C6.487,-3.94 6.446,-3.188 6.406,-2.388C6.365,-1.588 6.328,-0.804 6.296,-0.036C6.263,0.731 6.247,1.347 6.247,1.811L6.247,3.252C6.247,3.796 6.251,4.364 6.259,4.956C6.267,5.548 6.275,6.143 6.284,6.744C6.292,7.344 6.3,7.904 6.308,8.424C6.316,8.944 6.32,9.395 6.32,9.78L6.32,10.572L5.979,10.572C4.108,8.444 2.115,6.263 0,4.032" style="fill:rgb(100,86,64);fill-rule:nonzero;"/>
            </g>
        </g>
        <g transform="matrix(4.16667,0,0,4.16667,0,0)">
            <g transform="matrix(1,0,0,1,307.829,341.193)">
                <path d="M0,1.872C0.423,1.872 0.862,1.88 1.318,1.896C1.773,1.912 2.212,1.92 2.636,1.92C3.091,1.92 3.546,1.916 4.002,1.908C4.458,1.9 4.913,1.889 5.369,1.872L2.66,-4.224L0,1.872ZM10.811,9.336C10.583,9.304 10.367,9.288 10.164,9.288L8.87,9.288C8.667,9.288 8.451,9.304 8.224,9.336C8.11,8.968 7.955,8.524 7.76,8.004C7.565,7.484 7.349,6.94 7.113,6.372C6.877,5.805 6.638,5.228 6.394,4.644C6.149,4.06 5.921,3.504 5.71,2.976C5.189,2.96 4.661,2.948 4.124,2.94C3.587,2.933 3.05,2.928 2.514,2.928C2.009,2.928 1.513,2.933 1.025,2.94C0.537,2.948 0.041,2.96 -0.463,2.976C-0.984,4.224 -1.456,5.412 -1.879,6.54C-2.302,7.668 -2.62,8.601 -2.831,9.336C-3.107,9.304 -3.408,9.288 -3.733,9.288C-4.059,9.288 -4.36,9.304 -4.636,9.336C-3.319,6.536 -2.034,3.752 -0.781,0.984C0.472,-1.784 1.732,-4.6 3.001,-7.464L3.465,-7.464C3.855,-6.536 4.278,-5.532 4.734,-4.452C5.189,-3.372 5.653,-2.28 6.125,-1.176C6.597,-0.072 7.068,1.024 7.541,2.112C8.012,3.2 8.456,4.212 8.87,5.148C9.285,6.084 9.659,6.92 9.993,7.656C10.326,8.393 10.599,8.952 10.811,9.336" style="fill:rgb(100,86,64);fill-rule:nonzero;"/>
            </g>
        </g>
        <g transform="matrix(4.16667,0,0,4.16667,0,0)">
            <g transform="matrix(1,0,0,1,340.369,347.42)">
                <path d="M0,-10.272C-0.041,-11.288 -0.085,-12.324 -0.134,-13.38C0.077,-13.348 0.281,-13.32 0.476,-13.296C0.671,-13.272 0.866,-13.26 1.062,-13.26C1.257,-13.26 1.452,-13.272 1.647,-13.296C1.842,-13.32 2.045,-13.348 2.257,-13.38C2.208,-12.324 2.164,-11.288 2.123,-10.272C2.082,-9.255 2.062,-8.22 2.062,-7.164L2.062,-3.036C2.062,-1.98 2.082,-0.94 2.123,0.084C2.164,1.108 2.208,2.116 2.257,3.108C1.883,3.076 1.484,3.06 1.062,3.06C0.638,3.06 0.24,3.076 -0.134,3.108C-0.085,2.116 -0.041,1.108 0,0.084C0.041,-0.94 0.061,-1.98 0.061,-3.036L0.061,-5.196C-0.817,-5.211 -1.668,-5.224 -2.489,-5.232C-3.311,-5.24 -4.161,-5.244 -5.039,-5.244C-5.917,-5.244 -6.768,-5.24 -7.589,-5.232C-8.411,-5.224 -9.261,-5.211 -10.139,-5.196L-10.139,-3.036C-10.139,-1.98 -10.119,-0.94 -10.078,0.084C-10.038,1.108 -9.993,2.116 -9.944,3.108C-10.318,3.076 -10.717,3.06 -11.14,3.06C-11.563,3.06 -11.961,3.076 -12.335,3.108C-12.287,2.116 -12.242,1.108 -12.201,0.084C-12.161,-0.94 -12.14,-1.98 -12.14,-3.036L-12.14,-7.164C-12.14,-8.22 -12.161,-9.255 -12.201,-10.272C-12.242,-11.288 -12.287,-12.324 -12.335,-13.38C-12.125,-13.348 -11.921,-13.32 -11.726,-13.296C-11.53,-13.272 -11.335,-13.26 -11.14,-13.26C-10.944,-13.26 -10.75,-13.272 -10.554,-13.296C-10.359,-13.32 -10.156,-13.348 -9.944,-13.38C-9.993,-12.324 -10.038,-11.288 -10.078,-10.272C-10.119,-9.255 -10.139,-8.22 -10.139,-7.164L-10.139,-6.324C-9.261,-6.308 -8.411,-6.292 -7.589,-6.276C-6.768,-6.26 -5.917,-6.251 -5.039,-6.251C-4.161,-6.251 -3.311,-6.26 -2.489,-6.276C-1.668,-6.292 -0.817,-6.308 0.061,-6.324L0.061,-7.164C0.061,-8.22 0.041,-9.255 0,-10.272" style="fill:rgb(100,86,64);fill-rule:nonzero;"/>
            </g>
        </g>
        <g transform="matrix(4.16667,0,0,4.16667,0,0)">
            <g transform="matrix(1,0,0,1,361.734,342.249)">
                <path d="M0,0.071C0,-1.257 -0.171,-2.405 -0.513,-3.372C-0.854,-4.341 -1.33,-5.141 -1.94,-5.773C-2.55,-6.405 -3.266,-6.872 -4.087,-7.177C-4.909,-7.481 -5.8,-7.633 -6.76,-7.633C-7.704,-7.633 -8.586,-7.481 -9.407,-7.177C-10.229,-6.872 -10.945,-6.405 -11.555,-5.773C-12.165,-5.141 -12.641,-4.341 -12.982,-3.372C-13.324,-2.405 -13.495,-1.257 -13.495,0.071C-13.495,1.399 -13.324,2.548 -12.982,3.515C-12.641,4.483 -12.165,5.283 -11.555,5.915C-10.945,6.548 -10.229,7.015 -9.407,7.319C-8.586,7.624 -7.704,7.775 -6.76,7.775C-5.8,7.775 -4.909,7.624 -4.087,7.319C-3.266,7.015 -2.55,6.548 -1.94,5.915C-1.33,5.283 -0.854,4.483 -0.513,3.515C-0.171,2.548 0,1.399 0,0.071M-15.886,0.071C-15.886,-1.288 -15.663,-2.5 -15.215,-3.565C-14.768,-4.629 -14.142,-5.529 -13.336,-6.265C-12.531,-7 -11.567,-7.561 -10.444,-7.945C-9.322,-8.328 -8.094,-8.521 -6.76,-8.521C-5.41,-8.521 -4.173,-8.328 -3.05,-7.945C-1.928,-7.561 -0.964,-7 -0.159,-6.265C0.646,-5.529 1.272,-4.629 1.72,-3.565C2.167,-2.5 2.391,-1.288 2.391,0.071C2.391,1.431 2.167,2.643 1.72,3.707C1.272,4.771 0.646,5.672 -0.159,6.407C-0.964,7.143 -1.928,7.691 -3.05,8.051C-4.173,8.411 -5.41,8.592 -6.76,8.592C-8.094,8.592 -9.322,8.411 -10.444,8.051C-11.567,7.691 -12.531,7.143 -13.336,6.407C-14.142,5.672 -14.768,4.771 -15.215,3.707C-15.663,2.643 -15.886,1.431 -15.886,0.071" style="fill:rgb(100,86,64);fill-rule:nonzero;"/>
            </g>
        </g>
        <g transform="matrix(4.16667,0,0,4.16667,0,0)">
            <g transform="matrix(1,0,0,1,369.811,340.784)">
                <path d="M0,3C-0.163,2.729 -0.403,2.332 -0.72,1.813C-1.037,1.293 -1.387,0.717 -1.77,0.084C-2.152,-0.548 -2.554,-1.212 -2.977,-1.907C-3.4,-2.604 -3.803,-3.268 -4.185,-3.899C-4.567,-4.531 -4.914,-5.1 -5.222,-5.604C-5.532,-6.107 -5.768,-6.487 -5.93,-6.744C-5.702,-6.712 -5.479,-6.684 -5.259,-6.66C-5.039,-6.636 -4.816,-6.624 -4.588,-6.624C-4.36,-6.624 -4.136,-6.636 -3.917,-6.66C-3.697,-6.684 -3.474,-6.712 -3.246,-6.744C-2.514,-5.352 -1.77,-3.983 -1.013,-2.64C-0.256,-1.296 0.545,0.104 1.391,1.561C1.765,0.984 2.155,0.353 2.562,-0.336C2.969,-1.023 3.375,-1.728 3.782,-2.447C4.188,-3.168 4.579,-3.892 4.954,-4.62C5.328,-5.348 5.677,-6.056 6.003,-6.744C6.409,-6.663 6.727,-6.624 6.955,-6.624C7.182,-6.624 7.5,-6.663 7.906,-6.744C7.125,-5.575 6.426,-4.52 5.808,-3.576C5.189,-2.632 4.645,-1.775 4.173,-1.008C3.701,-0.239 3.286,0.452 2.928,1.068C2.57,1.685 2.261,2.24 2.001,2.736C2.001,3.328 2.005,3.96 2.013,4.632C2.021,5.305 2.033,5.964 2.05,6.612C2.066,7.261 2.086,7.86 2.111,8.412C2.135,8.964 2.163,9.408 2.196,9.744C1.822,9.712 1.423,9.696 1,9.696C0.577,9.696 0.179,9.712 -0.195,9.744C-0.098,8.912 -0.041,7.904 -0.024,6.721C-0.008,5.536 0,4.296 0,3" style="fill:rgb(100,86,64);fill-rule:nonzero;"/>
            </g>
        </g>
        <g transform="matrix(4.16667,0,0,4.16667,0,0)">
            <g transform="matrix(1,0,0,1,393.823,342.249)">
                <path d="M0,0.071C0,-1.257 -0.171,-2.405 -0.513,-3.372C-0.854,-4.341 -1.33,-5.141 -1.94,-5.773C-2.55,-6.405 -3.266,-6.872 -4.087,-7.177C-4.909,-7.481 -5.8,-7.633 -6.76,-7.633C-7.704,-7.633 -8.586,-7.481 -9.407,-7.177C-10.229,-6.872 -10.945,-6.405 -11.555,-5.773C-12.165,-5.141 -12.641,-4.341 -12.982,-3.372C-13.324,-2.405 -13.495,-1.257 -13.495,0.071C-13.495,1.399 -13.324,2.548 -12.982,3.515C-12.641,4.483 -12.165,5.283 -11.555,5.915C-10.945,6.548 -10.229,7.015 -9.407,7.319C-8.586,7.624 -7.704,7.775 -6.76,7.775C-5.8,7.775 -4.909,7.624 -4.087,7.319C-3.266,7.015 -2.55,6.548 -1.94,5.915C-1.33,5.283 -0.854,4.483 -0.513,3.515C-0.171,2.548 0,1.399 0,0.071M-15.886,0.071C-15.886,-1.288 -15.663,-2.5 -15.215,-3.565C-14.768,-4.629 -14.142,-5.529 -13.336,-6.265C-12.531,-7 -11.567,-7.561 -10.444,-7.945C-9.322,-8.328 -8.094,-8.521 -6.76,-8.521C-5.41,-8.521 -4.173,-8.328 -3.05,-7.945C-1.928,-7.561 -0.964,-7 -0.159,-6.265C0.646,-5.529 1.272,-4.629 1.72,-3.565C2.167,-2.5 2.391,-1.288 2.391,0.071C2.391,1.431 2.167,2.643 1.72,3.707C1.272,4.771 0.646,5.672 -0.159,6.407C-0.964,7.143 -1.928,7.691 -3.05,8.051C-4.173,8.411 -5.41,8.592 -6.76,8.592C-8.094,8.592 -9.322,8.411 -10.444,8.051C-11.567,7.691 -12.531,7.143 -13.336,6.407C-14.142,5.672 -14.768,4.771 -15.215,3.707C-15.663,2.643 -15.886,1.431 -15.886,0.071" style="fill:rgb(100,86,64);fill-rule:nonzero;"/>
            </g>
        </g>
        <g transform="matrix(4.16667,0,0,4.16667,0,0)">
            <g transform="matrix(1,0,0,1,399.619,336.285)">
                <path d="M0,11.999C0.219,12.296 0.488,12.563 0.805,12.804C1.123,13.043 1.492,13.239 1.916,13.392C2.338,13.544 2.81,13.619 3.331,13.619C3.868,13.619 4.352,13.527 4.783,13.344C5.213,13.159 5.58,12.911 5.881,12.6C6.182,12.287 6.414,11.92 6.576,11.495C6.739,11.071 6.82,10.619 6.82,10.14C6.82,9.403 6.629,8.819 6.247,8.388C5.864,7.955 5.389,7.596 4.819,7.308C4.25,7.02 3.636,6.755 2.977,6.516C2.318,6.275 1.704,5.976 1.135,5.615C0.565,5.255 0.089,4.796 -0.293,4.235C-0.675,3.676 -0.866,2.924 -0.866,1.979C-0.866,1.308 -0.745,0.695 -0.5,0.144C-0.256,-0.408 0.098,-0.885 0.561,-1.285C1.025,-1.685 1.582,-1.996 2.233,-2.221C2.883,-2.444 3.615,-2.557 4.429,-2.557C5.21,-2.557 5.885,-2.465 6.454,-2.28C7.023,-2.097 7.552,-1.813 8.041,-1.429C7.894,-1.156 7.772,-0.868 7.674,-0.564C7.577,-0.261 7.479,0.123 7.382,0.587L7.089,0.587C7.007,0.363 6.897,0.119 6.759,-0.145C6.621,-0.408 6.434,-0.652 6.198,-0.877C5.962,-1.101 5.682,-1.288 5.356,-1.44C5.031,-1.593 4.64,-1.669 4.185,-1.669C3.729,-1.669 3.31,-1.597 2.928,-1.453C2.546,-1.309 2.212,-1.105 1.928,-0.841C1.643,-0.577 1.423,-0.261 1.269,0.107C1.114,0.476 1.037,0.875 1.037,1.308C1.037,2.06 1.228,2.651 1.61,3.083C1.993,3.516 2.468,3.88 3.038,4.176C3.607,4.472 4.222,4.735 4.88,4.968C5.539,5.199 6.153,5.483 6.723,5.819C7.292,6.155 7.768,6.587 8.15,7.115C8.532,7.644 8.724,8.348 8.724,9.228C8.724,9.964 8.589,10.659 8.321,11.315C8.053,11.972 7.662,12.543 7.15,13.031C6.637,13.52 6.011,13.895 5.271,14.159C4.53,14.423 3.688,14.556 2.745,14.556C1.736,14.556 0.919,14.423 0.292,14.159C-0.334,13.895 -0.858,13.596 -1.281,13.26C-1.135,12.892 -1.033,12.56 -0.976,12.264C-0.919,11.968 -0.866,11.588 -0.818,11.123L-0.525,11.123C-0.395,11.411 -0.22,11.703 0,11.999" style="fill:rgb(100,86,64);fill-rule:nonzero;"/>
            </g>
        </g>
        <g transform="matrix(4.16667,0,0,4.16667,0,0)">
            <g transform="matrix(1,0,0,1,420.617,340.184)">
                <path d="M0,4.201C0,5.929 0.049,7.625 0.146,9.289C0.488,9.369 0.952,9.429 1.538,9.469C2.124,9.509 2.725,9.529 3.342,9.529C4.237,9.529 5.133,9.425 6.028,9.217C6.922,9.009 7.723,8.617 8.43,8.041C9.139,7.465 9.715,6.677 10.163,5.677C10.61,4.677 10.834,3.385 10.834,1.801C10.834,0.409 10.659,-0.736 10.309,-1.631C9.959,-2.528 9.481,-3.236 8.87,-3.755C8.26,-4.275 7.532,-4.635 6.686,-4.835C5.84,-5.035 4.913,-5.135 3.905,-5.135C3.172,-5.135 2.489,-5.112 1.854,-5.064C1.22,-5.015 0.65,-4.959 0.146,-4.896C0.098,-4.127 0.061,-3.323 0.037,-2.484C0.012,-1.644 0,-0.791 0,0.073L0,4.201ZM-2.001,0.073C-2.001,-0.984 -2.021,-2.019 -2.062,-3.035C-2.103,-4.051 -2.147,-5.087 -2.196,-6.144C-1.578,-6.112 -0.964,-6.083 -0.354,-6.06C0.256,-6.035 0.87,-6.024 1.489,-6.024C2.106,-6.024 2.721,-6.043 3.331,-6.083C3.94,-6.123 4.555,-6.144 5.172,-6.144C6.604,-6.144 7.829,-5.959 8.846,-5.591C9.862,-5.223 10.696,-4.699 11.346,-4.02C11.997,-3.339 12.473,-2.507 12.774,-1.524C13.075,-0.539 13.225,0.569 13.225,1.801C13.225,3.401 12.946,4.749 12.383,5.845C11.823,6.941 11.106,7.825 10.237,8.497C9.366,9.169 8.407,9.645 7.358,9.925C6.307,10.205 5.303,10.345 4.344,10.345C3.79,10.345 3.245,10.337 2.709,10.321C2.172,10.305 1.625,10.297 1.074,10.297L-0.562,10.297C-1.098,10.297 -1.644,10.312 -2.196,10.345C-2.147,9.352 -2.103,8.345 -2.062,7.321C-2.021,6.297 -2.001,5.257 -2.001,4.201L-2.001,0.073Z" style="fill:rgb(100,86,64);fill-rule:nonzero;"/>
            </g>
        </g>
        <g transform="matrix(4.16667,0,0,4.16667,0,0)">
            <g transform="matrix(1,0,0,1,437.539,347.456)">
                <path d="M0,-10.344C-0.04,-11.367 -0.085,-12.392 -0.134,-13.416C0.599,-13.384 1.326,-13.356 2.05,-13.332C2.773,-13.308 3.502,-13.296 4.234,-13.296C4.966,-13.296 5.69,-13.308 6.406,-13.332C7.122,-13.356 7.846,-13.384 8.578,-13.416C8.529,-13.176 8.505,-12.936 8.505,-12.696C8.505,-12.456 8.529,-12.216 8.578,-11.976C8.057,-12.008 7.581,-12.039 7.15,-12.072C6.719,-12.104 6.264,-12.136 5.784,-12.168C5.304,-12.199 4.779,-12.228 4.21,-12.252C3.641,-12.276 2.957,-12.287 2.16,-12.287C2.144,-11.776 2.123,-11.287 2.099,-10.823C2.074,-10.36 2.063,-9.831 2.063,-9.24C2.063,-8.615 2.066,-8.008 2.074,-7.416C2.083,-6.823 2.087,-6.375 2.087,-6.072C2.803,-6.072 3.445,-6.079 4.015,-6.096C4.584,-6.112 5.104,-6.132 5.576,-6.156C6.048,-6.18 6.483,-6.203 6.882,-6.228C7.28,-6.252 7.658,-6.28 8.017,-6.312C7.968,-6.072 7.943,-5.823 7.943,-5.568C7.943,-5.327 7.968,-5.088 8.017,-4.848C7.594,-4.896 7.102,-4.936 6.54,-4.968C5.979,-4.999 5.418,-5.02 4.856,-5.028C4.295,-5.035 3.767,-5.043 3.271,-5.052C2.773,-5.06 2.38,-5.064 2.087,-5.064C2.087,-4.92 2.083,-4.764 2.074,-4.596C2.066,-4.428 2.063,-4.216 2.063,-3.96L2.063,-1.584C2.063,-0.672 2.066,0.081 2.074,0.673C2.083,1.264 2.095,1.713 2.111,2.016L3.819,2.016C4.437,2.016 5.043,2.005 5.638,1.98C6.231,1.956 6.792,1.925 7.321,1.885C7.85,1.844 8.31,1.784 8.7,1.704C8.667,1.816 8.646,1.94 8.639,2.076C8.631,2.213 8.627,2.337 8.627,2.448C8.627,2.704 8.651,2.913 8.7,3.072C7.968,3.04 7.239,3.024 6.516,3.024L2.087,3.024C1.354,3.024 0.614,3.04 -0.134,3.072C-0.085,2.049 -0.04,1.028 0,0.012C0.041,-1.004 0.062,-2.04 0.062,-3.096L0.062,-7.224C0.062,-8.28 0.041,-9.32 0,-10.344" style="fill:rgb(100,86,64);fill-rule:nonzero;"/>
            </g>
        </g>
        <g transform="matrix(4.16667,0,0,4.16667,0,0)">
            <g transform="matrix(1,0,0,1,449.789,336.285)">
                <path d="M0,11.999C0.22,12.296 0.488,12.563 0.806,12.804C1.123,13.043 1.493,13.239 1.916,13.392C2.339,13.544 2.811,13.619 3.331,13.619C3.868,13.619 4.352,13.527 4.783,13.344C5.214,13.159 5.58,12.911 5.881,12.6C6.183,12.287 6.414,11.92 6.577,11.495C6.739,11.071 6.821,10.619 6.821,10.14C6.821,9.403 6.63,8.819 6.247,8.388C5.865,7.955 5.389,7.596 4.82,7.308C4.25,7.02 3.637,6.755 2.978,6.516C2.318,6.275 1.704,5.976 1.135,5.615C0.565,5.255 0.09,4.796 -0.293,4.235C-0.675,3.676 -0.866,2.924 -0.866,1.979C-0.866,1.308 -0.744,0.695 -0.5,0.144C-0.256,-0.408 0.098,-0.885 0.562,-1.285C1.025,-1.685 1.582,-1.996 2.233,-2.221C2.884,-2.444 3.615,-2.557 4.43,-2.557C5.21,-2.557 5.885,-2.465 6.455,-2.28C7.024,-2.097 7.553,-1.813 8.041,-1.429C7.895,-1.156 7.772,-0.868 7.675,-0.564C7.577,-0.261 7.479,0.123 7.382,0.587L7.089,0.587C7.008,0.363 6.897,0.119 6.76,-0.145C6.621,-0.408 6.435,-0.652 6.198,-0.877C5.963,-1.101 5.682,-1.288 5.356,-1.44C5.031,-1.593 4.641,-1.669 4.186,-1.669C3.729,-1.669 3.311,-1.597 2.929,-1.453C2.546,-1.309 2.213,-1.105 1.928,-0.841C1.644,-0.577 1.424,-0.261 1.27,0.107C1.114,0.476 1.037,0.875 1.037,1.308C1.037,2.06 1.229,2.651 1.611,3.083C1.993,3.516 2.469,3.88 3.038,4.176C3.607,4.472 4.222,4.735 4.881,4.968C5.54,5.199 6.153,5.483 6.724,5.819C7.293,6.155 7.769,6.587 8.15,7.115C8.533,7.644 8.725,8.348 8.725,9.228C8.725,9.964 8.59,10.659 8.321,11.315C8.053,11.972 7.663,12.543 7.15,13.031C6.638,13.52 6.012,13.895 5.271,14.159C4.531,14.423 3.688,14.556 2.746,14.556C1.736,14.556 0.919,14.423 0.293,14.159C-0.333,13.895 -0.858,13.596 -1.281,13.26C-1.135,12.892 -1.033,12.56 -0.976,12.264C-0.919,11.968 -0.866,11.588 -0.817,11.123L-0.524,11.123C-0.395,11.411 -0.22,11.703 0,11.999" style="fill:rgb(100,86,64);fill-rule:nonzero;"/>
            </g>
        </g>
        <g transform="matrix(4.16667,0,0,4.16667,0,0)">
            <g transform="matrix(1,0,0,1,461.941,347.42)">
                <path d="M0,-10.272C-0.04,-11.288 -0.085,-12.324 -0.134,-13.38C0.077,-13.348 0.281,-13.32 0.477,-13.296C0.672,-13.272 0.866,-13.26 1.062,-13.26C1.257,-13.26 1.452,-13.272 1.647,-13.296C1.843,-13.32 2.046,-13.348 2.258,-13.38C2.209,-12.324 2.164,-11.288 2.123,-10.272C2.083,-9.255 2.063,-8.22 2.063,-7.164L2.063,-3.036C2.063,-1.98 2.083,-0.94 2.123,0.084C2.164,1.108 2.209,2.116 2.258,3.108C1.883,3.076 1.484,3.06 1.062,3.06C0.639,3.06 0.24,3.076 -0.134,3.108C-0.085,2.116 -0.04,1.108 0,0.084C0.041,-0.94 0.062,-1.98 0.062,-3.036L0.062,-7.164C0.062,-8.22 0.041,-9.255 0,-10.272" style="fill:rgb(100,86,64);fill-rule:nonzero;"/>
            </g>
        </g>
        <g transform="matrix(4.16667,0,0,4.16667,0,0)">
            <g transform="matrix(1,0,0,1,481.855,348.465)">
                <path d="M0,-12.36C-0.366,-12.648 -0.772,-12.9 -1.22,-13.116C-1.668,-13.332 -2.164,-13.507 -2.709,-13.644C-3.254,-13.78 -3.835,-13.848 -4.453,-13.848C-5.462,-13.848 -6.401,-13.696 -7.271,-13.392C-8.143,-13.088 -8.898,-12.62 -9.541,-11.988C-10.185,-11.356 -10.688,-10.556 -11.055,-9.588C-11.42,-8.62 -11.604,-7.472 -11.604,-6.144C-11.604,-4.976 -11.441,-3.92 -11.115,-2.976C-10.79,-2.032 -10.314,-1.236 -9.688,-0.588C-9.062,0.06 -8.297,0.56 -7.394,0.912C-6.491,1.264 -5.471,1.44 -4.331,1.44C-3.99,1.44 -3.632,1.424 -3.258,1.392C-2.884,1.36 -2.521,1.312 -2.172,1.248C-1.822,1.184 -1.497,1.104 -1.195,1.008C-0.895,0.912 -0.639,0.8 -0.427,0.672C-0.411,0.192 -0.398,-0.288 -0.391,-0.768C-0.383,-1.248 -0.378,-1.736 -0.378,-2.232C-0.378,-2.792 -0.391,-3.352 -0.415,-3.912C-0.439,-4.472 -0.468,-5.007 -0.5,-5.52C-0.094,-5.44 0.297,-5.4 0.671,-5.4C0.85,-5.4 1.028,-5.408 1.208,-5.424C1.387,-5.44 1.558,-5.472 1.721,-5.52C1.687,-5.152 1.663,-4.572 1.647,-3.78C1.631,-2.988 1.623,-1.944 1.623,-0.648C1.623,-0.328 1.627,-0.004 1.635,0.324C1.643,0.652 1.647,0.976 1.647,1.296C1.306,1.424 0.879,1.556 0.366,1.692C-0.146,1.828 -0.691,1.94 -1.269,2.028C-1.847,2.116 -2.424,2.196 -3.002,2.268C-3.579,2.34 -4.104,2.376 -4.575,2.376C-6.023,2.376 -7.329,2.203 -8.492,1.86C-9.655,1.516 -10.644,0.984 -11.457,0.264C-12.271,-0.456 -12.896,-1.352 -13.336,-2.424C-13.775,-3.496 -13.995,-4.736 -13.995,-6.144C-13.995,-7.504 -13.768,-8.715 -13.312,-9.78C-12.856,-10.844 -12.214,-11.744 -11.384,-12.48C-10.554,-13.215 -9.55,-13.776 -8.37,-14.16C-7.19,-14.544 -5.885,-14.736 -4.453,-14.736C-3.624,-14.736 -2.888,-14.692 -2.245,-14.604C-1.603,-14.516 -1.033,-14.4 -0.537,-14.256C-0.041,-14.112 0.395,-13.96 0.769,-13.8C1.143,-13.64 1.477,-13.488 1.77,-13.344C1.639,-13.12 1.521,-12.832 1.415,-12.48C1.31,-12.128 1.24,-11.799 1.208,-11.496L0.915,-11.496C0.671,-11.784 0.366,-12.072 0,-12.36" style="fill:rgb(100,86,64);fill-rule:nonzero;"/>
            </g>
        </g>
        <g transform="matrix(4.16667,0,0,4.16667,0,0)">
            <g transform="matrix(1,0,0,1,495.532,340.269)">
                <path d="M0,4.032C-2.115,1.8 -4.229,-0.42 -6.345,-2.628C-6.361,-2.18 -6.377,-1.58 -6.394,-0.828C-6.41,-0.076 -6.418,0.948 -6.418,2.244C-6.418,2.58 -6.414,2.996 -6.405,3.492C-6.397,3.988 -6.39,4.508 -6.381,5.052C-6.373,5.595 -6.361,6.148 -6.345,6.708C-6.328,7.268 -6.312,7.788 -6.296,8.267C-6.279,8.748 -6.264,9.168 -6.247,9.528C-6.23,9.887 -6.215,10.132 -6.198,10.26C-6.459,10.227 -6.743,10.212 -7.053,10.212C-7.378,10.212 -7.679,10.227 -7.955,10.26C-7.923,10.1 -7.886,9.803 -7.846,9.372C-7.805,8.939 -7.769,8.424 -7.735,7.824C-7.703,7.223 -7.667,6.572 -7.626,5.868C-7.585,5.164 -7.553,4.46 -7.528,3.756C-7.504,3.052 -7.483,2.364 -7.467,1.692C-7.451,1.019 -7.442,0.42 -7.442,-0.109C-7.442,-1.645 -7.447,-2.964 -7.455,-4.069C-7.463,-5.172 -7.483,-5.996 -7.516,-6.54L-7.125,-6.54C-6.134,-5.485 -5.072,-4.352 -3.941,-3.145C-2.811,-1.936 -1.687,-0.744 -0.573,0.431C0.541,1.608 1.599,2.72 2.599,3.767C3.6,4.816 4.474,5.708 5.223,6.444L5.223,3.179C5.223,1.5 5.21,-0.136 5.186,-1.729C5.161,-3.321 5.108,-4.821 5.027,-6.229C5.353,-6.148 5.629,-6.109 5.856,-6.109C6.052,-6.109 6.312,-6.148 6.638,-6.229C6.604,-5.876 6.568,-5.348 6.527,-4.645C6.487,-3.94 6.446,-3.188 6.405,-2.388C6.365,-1.588 6.328,-0.804 6.296,-0.036C6.263,0.731 6.247,1.347 6.247,1.811L6.247,3.252C6.247,3.796 6.251,4.364 6.26,4.956C6.268,5.548 6.275,6.143 6.284,6.744C6.292,7.344 6.3,7.904 6.308,8.424C6.316,8.944 6.32,9.395 6.32,9.78L6.32,10.572L5.979,10.572C4.107,8.444 2.114,6.263 0,4.032" style="fill:rgb(100,86,64);fill-rule:nonzero;"/>
            </g>
        </g>
        <g transform="matrix(4.16667,0,0,4.16667,0,0)">
            <g transform="matrix(1,0,0,1,513.529,336.285)">
                <path d="M0,11.999C0.22,12.296 0.488,12.563 0.806,12.804C1.123,13.043 1.493,13.239 1.916,13.392C2.339,13.544 2.811,13.619 3.331,13.619C3.868,13.619 4.352,13.527 4.783,13.344C5.214,13.159 5.58,12.911 5.881,12.6C6.183,12.287 6.414,11.92 6.577,11.495C6.739,11.071 6.821,10.619 6.821,10.14C6.821,9.403 6.63,8.819 6.247,8.388C5.865,7.955 5.389,7.596 4.82,7.308C4.25,7.02 3.637,6.755 2.978,6.516C2.318,6.275 1.704,5.976 1.135,5.615C0.565,5.255 0.09,4.796 -0.293,4.235C-0.675,3.676 -0.866,2.924 -0.866,1.979C-0.866,1.308 -0.744,0.695 -0.5,0.144C-0.256,-0.408 0.098,-0.885 0.562,-1.285C1.025,-1.685 1.582,-1.996 2.233,-2.221C2.884,-2.444 3.615,-2.557 4.43,-2.557C5.21,-2.557 5.885,-2.465 6.455,-2.28C7.024,-2.097 7.553,-1.813 8.041,-1.429C7.895,-1.156 7.772,-0.868 7.675,-0.564C7.577,-0.261 7.479,0.123 7.382,0.587L7.089,0.587C7.008,0.363 6.897,0.119 6.76,-0.145C6.621,-0.408 6.435,-0.652 6.198,-0.877C5.963,-1.101 5.682,-1.288 5.356,-1.44C5.031,-1.593 4.641,-1.669 4.186,-1.669C3.729,-1.669 3.311,-1.597 2.929,-1.453C2.546,-1.309 2.213,-1.105 1.928,-0.841C1.644,-0.577 1.424,-0.261 1.27,0.107C1.114,0.476 1.037,0.875 1.037,1.308C1.037,2.06 1.229,2.651 1.611,3.083C1.993,3.516 2.469,3.88 3.038,4.176C3.607,4.472 4.222,4.735 4.881,4.968C5.54,5.199 6.153,5.483 6.724,5.819C7.293,6.155 7.769,6.587 8.15,7.115C8.533,7.644 8.725,8.348 8.725,9.228C8.725,9.964 8.59,10.659 8.321,11.315C8.053,11.972 7.663,12.543 7.15,13.031C6.638,13.52 6.012,13.895 5.271,14.159C4.531,14.423 3.688,14.556 2.746,14.556C1.736,14.556 0.919,14.423 0.293,14.159C-0.333,13.895 -0.858,13.596 -1.281,13.26C-1.135,12.892 -1.033,12.56 -0.976,12.264C-0.919,11.968 -0.866,11.588 -0.817,11.123L-0.524,11.123C-0.395,11.411 -0.22,11.703 0,11.999" style="fill:rgb(100,86,64);fill-rule:nonzero;"/>
            </g>
        </g>
        <g transform="matrix(4.16667,0,0,4.16667,0,0)">
            <g transform="matrix(1,0,0,1,529.061,349.28)">
                <path d="M0,-13.992C-0.423,-13.992 -0.866,-13.987 -1.33,-13.979C-1.793,-13.971 -2.257,-13.956 -2.721,-13.931C-3.185,-13.908 -3.632,-13.88 -4.062,-13.847C-4.494,-13.815 -4.88,-13.775 -5.222,-13.727C-5.141,-14.015 -5.1,-14.271 -5.1,-14.496C-5.1,-14.672 -5.141,-14.92 -5.222,-15.24C-4.148,-15.208 -3.099,-15.179 -2.074,-15.156C-1.049,-15.132 0,-15.12 1.074,-15.12C2.147,-15.12 3.197,-15.132 4.222,-15.156C5.247,-15.179 6.296,-15.208 7.37,-15.24C7.288,-14.92 7.248,-14.664 7.248,-14.471C7.248,-14.263 7.288,-14.015 7.37,-13.727C7.028,-13.775 6.642,-13.815 6.211,-13.847C5.779,-13.88 5.332,-13.908 4.868,-13.931C4.405,-13.956 3.941,-13.971 3.478,-13.979C3.014,-13.987 2.57,-13.992 2.147,-13.992C2.099,-12.344 2.074,-10.687 2.074,-9.023L2.074,-4.895C2.074,-3.84 2.095,-2.8 2.136,-1.775C2.176,-0.752 2.221,0.256 2.27,1.248C1.896,1.216 1.497,1.2 1.074,1.2C0.65,1.2 0.252,1.216 -0.122,1.248C-0.073,0.256 -0.028,-0.752 0.013,-1.775C0.053,-2.8 0.073,-3.84 0.073,-4.895L0.073,-9.023C0.073,-10.687 0.049,-12.344 0,-13.992" style="fill:rgb(100,86,64);fill-rule:nonzero;"/>
            </g>
        </g>
        <g transform="matrix(4.16667,0,0,4.16667,0,0)">
            <g transform="matrix(1,0,0,1,552.024,343.04)">
                <path d="M0,-1.199C0,-3.471 -0.009,-5.223 -0.024,-6.456C-0.041,-7.687 -0.082,-8.535 -0.146,-9C0.032,-8.968 0.203,-8.939 0.365,-8.916C0.528,-8.891 0.691,-8.88 0.854,-8.88C1.065,-8.88 1.309,-8.919 1.586,-9C1.537,-8.439 1.488,-7.771 1.439,-6.995C1.391,-6.22 1.35,-5.387 1.317,-4.5C1.284,-3.611 1.252,-2.699 1.22,-1.763C1.187,-0.827 1.162,0.081 1.146,0.96C1.13,2.032 0.964,2.992 0.646,3.841C0.329,4.689 -0.122,5.408 -0.708,6C-1.294,6.593 -2.014,7.041 -2.867,7.345C-3.722,7.649 -4.702,7.801 -5.809,7.801C-8.248,7.801 -10.021,7.257 -11.128,6.168C-12.234,5.08 -12.787,3.361 -12.787,1.009C-12.787,0.257 -12.767,-0.411 -12.727,-0.995C-12.686,-1.579 -12.665,-2.176 -12.665,-2.783C-12.665,-4.128 -12.682,-5.319 -12.714,-6.359C-12.747,-7.399 -12.779,-8.279 -12.812,-9C-12.616,-8.968 -12.405,-8.939 -12.177,-8.916C-11.949,-8.891 -11.738,-8.88 -11.543,-8.88C-11.364,-8.88 -11.188,-8.891 -11.018,-8.916C-10.848,-8.939 -10.673,-8.968 -10.493,-9C-10.526,-8.647 -10.559,-8.187 -10.591,-7.619C-10.624,-7.052 -10.656,-6.407 -10.688,-5.687C-10.722,-4.968 -10.746,-4.191 -10.762,-3.359C-10.778,-2.527 -10.786,-1.663 -10.786,-0.767C-10.786,-0.223 -10.778,0.341 -10.762,0.925C-10.746,1.509 -10.688,2.076 -10.591,2.629C-10.493,3.181 -10.335,3.708 -10.115,4.213C-9.896,4.717 -9.582,5.156 -9.176,5.532C-8.77,5.908 -8.257,6.204 -7.639,6.421C-7.021,6.637 -6.256,6.744 -5.345,6.744C-4.45,6.744 -3.697,6.616 -3.087,6.361C-2.478,6.105 -1.977,5.769 -1.587,5.353C-1.196,4.937 -0.891,4.457 -0.672,3.912C-0.452,3.369 -0.293,2.801 -0.195,2.208C-0.098,1.616 -0.041,1.025 -0.024,0.433C-0.009,-0.159 0,-0.703 0,-1.199" style="fill:rgb(100,86,64);fill-rule:nonzero;"/>
            </g>
        </g>
        <g transform="matrix(4.16667,0,0,4.16667,0,0)">
            <g transform="matrix(1,0,0,1,560.297,340.184)">
                <path d="M0,4.201C0,5.929 0.049,7.625 0.146,9.289C0.488,9.369 0.951,9.429 1.537,9.469C2.123,9.509 2.725,9.529 3.343,9.529C4.237,9.529 5.133,9.425 6.027,9.217C6.922,9.009 7.724,8.617 8.431,8.041C9.139,7.465 9.716,6.677 10.163,5.677C10.61,4.677 10.835,3.385 10.835,1.801C10.835,0.409 10.659,-0.736 10.31,-1.631C9.96,-2.528 9.48,-3.236 8.87,-3.755C8.26,-4.275 7.532,-4.635 6.687,-4.835C5.84,-5.035 4.913,-5.135 3.904,-5.135C3.172,-5.135 2.489,-5.112 1.854,-5.064C1.22,-5.015 0.65,-4.959 0.146,-4.896C0.098,-4.127 0.061,-3.323 0.036,-2.484C0.012,-1.644 0,-0.791 0,0.073L0,4.201ZM-2.001,0.073C-2.001,-0.984 -2.021,-2.019 -2.063,-3.035C-2.103,-4.051 -2.147,-5.087 -2.196,-6.144C-1.578,-6.112 -0.964,-6.083 -0.354,-6.06C0.256,-6.035 0.87,-6.024 1.488,-6.024C2.106,-6.024 2.721,-6.043 3.331,-6.083C3.94,-6.123 4.555,-6.144 5.173,-6.144C6.604,-6.144 7.829,-5.959 8.846,-5.591C9.862,-5.223 10.696,-4.699 11.347,-4.02C11.997,-3.339 12.474,-2.507 12.774,-1.524C13.075,-0.539 13.226,0.569 13.226,1.801C13.226,3.401 12.945,4.749 12.384,5.845C11.823,6.941 11.106,7.825 10.236,8.497C9.366,9.169 8.406,9.645 7.357,9.925C6.308,10.205 5.303,10.345 4.344,10.345C3.79,10.345 3.245,10.337 2.709,10.321C2.172,10.305 1.626,10.297 1.073,10.297L-0.562,10.297C-1.099,10.297 -1.644,10.312 -2.196,10.345C-2.147,9.352 -2.103,8.345 -2.063,7.321C-2.021,6.297 -2.001,5.257 -2.001,4.201L-2.001,0.073Z" style="fill:rgb(100,86,64);fill-rule:nonzero;"/>
            </g>
        </g>
        <g transform="matrix(4.16667,0,0,4.16667,0,0)">
            <g transform="matrix(1,0,0,1,577.22,347.42)">
                <path d="M0,-10.272C-0.04,-11.288 -0.085,-12.324 -0.134,-13.38C0.077,-13.348 0.281,-13.32 0.477,-13.296C0.672,-13.272 0.866,-13.26 1.062,-13.26C1.257,-13.26 1.452,-13.272 1.647,-13.296C1.843,-13.32 2.046,-13.348 2.258,-13.38C2.209,-12.324 2.164,-11.288 2.123,-10.272C2.083,-9.255 2.063,-8.22 2.063,-7.164L2.063,-3.036C2.063,-1.98 2.083,-0.94 2.123,0.084C2.164,1.108 2.209,2.116 2.258,3.108C1.883,3.076 1.484,3.06 1.062,3.06C0.639,3.06 0.24,3.076 -0.134,3.108C-0.085,2.116 -0.04,1.108 0,0.084C0.041,-0.94 0.062,-1.98 0.062,-3.036L0.062,-7.164C0.062,-8.22 0.041,-9.255 0,-10.272" style="fill:rgb(100,86,64);fill-rule:nonzero;"/>
            </g>
        </g>
        <g transform="matrix(4.16667,0,0,4.16667,0,0)">
            <g transform="matrix(1,0,0,1,598.585,342.249)">
                <path d="M0,0.071C0,-1.257 -0.171,-2.405 -0.513,-3.372C-0.854,-4.341 -1.33,-5.141 -1.94,-5.773C-2.55,-6.405 -3.267,-6.872 -4.088,-7.177C-4.909,-7.481 -5.8,-7.633 -6.76,-7.633C-7.703,-7.633 -8.586,-7.481 -9.407,-7.177C-10.229,-6.872 -10.944,-6.405 -11.555,-5.773C-12.165,-5.141 -12.641,-4.341 -12.982,-3.372C-13.324,-2.405 -13.495,-1.257 -13.495,0.071C-13.495,1.399 -13.324,2.548 -12.982,3.515C-12.641,4.483 -12.165,5.283 -11.555,5.915C-10.944,6.548 -10.229,7.015 -9.407,7.319C-8.586,7.624 -7.703,7.775 -6.76,7.775C-5.8,7.775 -4.909,7.624 -4.088,7.319C-3.267,7.015 -2.55,6.548 -1.94,5.915C-1.33,5.283 -0.854,4.483 -0.513,3.515C-0.171,2.548 0,1.399 0,0.071M-15.886,0.071C-15.886,-1.288 -15.663,-2.5 -15.215,-3.565C-14.768,-4.629 -14.142,-5.529 -13.336,-6.265C-12.531,-7 -11.567,-7.561 -10.444,-7.945C-9.322,-8.328 -8.094,-8.521 -6.76,-8.521C-5.409,-8.521 -4.173,-8.328 -3.051,-7.945C-1.928,-7.561 -0.964,-7 -0.159,-6.265C0.646,-5.529 1.272,-4.629 1.72,-3.565C2.167,-2.5 2.392,-1.288 2.392,0.071C2.392,1.431 2.167,2.643 1.72,3.707C1.272,4.771 0.646,5.672 -0.159,6.407C-0.964,7.143 -1.928,7.691 -3.051,8.051C-4.173,8.411 -5.409,8.592 -6.76,8.592C-8.094,8.592 -9.322,8.411 -10.444,8.051C-11.567,7.691 -12.531,7.143 -13.336,6.407C-14.142,5.672 -14.768,4.771 -15.215,3.707C-15.663,2.643 -15.886,1.431 -15.886,0.071" style="fill:rgb(100,86,64);fill-rule:nonzero;"/>
            </g>
        </g>
    </g>
</svg>
